HIERARCHY
ROOT Hips
{
	OFFSET 0.000000 88.474243 0.000000
	CHANNELS 6 Xposition Yposition Zposition Zrotation Yrotation Xrotation 
	JOINT Hips_Spine
	{
		OFFSET 0.000000 0.000000 0.000000
		CHANNELS 3 Zrotation Yrotation Xrotation
		JOINT Spine
		{
			OFFSET 0.005100 8.711998 -0.691000
			CHANNELS 3 Zrotation Yrotation Xrotation
			JOINT Spine1
			{
				OFFSET -0.009200 8.660301 -1.275000
				CHANNELS 3 Zrotation Yrotation Xrotation
				JOINT Spine2
				{
					OFFSET 0.006300 9.852501 -1.857000
					CHANNELS 3 Zrotation Yrotation Xrotation
					JOINT Spine2_Neck
					{
						OFFSET 0.000000 0.000000 0.000000
						CHANNELS 3 Zrotation Yrotation Xrotation
						JOINT Neck
						{
							OFFSET 0.016300 11.420799 -0.263300
							CHANNELS 3 Zrotation Yrotation Xrotation
							End Site #name: Head
							{
								OFFSET -0.019200 9.262405 2.362500
							}
						}
					}
					JOINT Spine2_LeftShoulder
					{
						OFFSET 0.000000 0.000000 0.000000
						CHANNELS 3 Zrotation Yrotation Xrotation
						JOINT LeftShoulder
						{
							OFFSET 5.616900 6.732201 -0.345700
							CHANNELS 3 Zrotation Yrotation Xrotation
							JOINT LeftArm
							{
								OFFSET 10.664888 -0.183372 -2.440700
								CHANNELS 3 Zrotation Yrotation Xrotation
								JOINT LeftForeArm
								{
									OFFSET 27.459126 0.000000 0.000000
									CHANNELS 3 Zrotation Yrotation Xrotation
									End Site #name: LeftHand
									{
										OFFSET 21.306858 0.000000 0.000000
									}
								}
							}
						}
					}
					JOINT Spine2_RightShoulder
					{
						OFFSET 0.000000 0.000000 0.000000
						CHANNELS 3 Zrotation Yrotation Xrotation
						JOINT RightShoulder
						{
							OFFSET -5.580300 6.737503 -0.344400
							CHANNELS 3 Zrotation Yrotation Xrotation
							JOINT RightArm
							{
								OFFSET -10.679335 -0.188484 -2.383900
								CHANNELS 3 Zrotation Yrotation Xrotation
								JOINT RightForeArm
								{
									OFFSET -27.503529 0.000000 0.000000
									CHANNELS 3 Zrotation Yrotation Xrotation
									End Site #name: RightHand
									{
										OFFSET -21.306808 0.000000 0.000000
									}
								}
							}
						}
					}
				}
			}
		}
	}
	JOINT Hips_LeftUpLeg
	{
		OFFSET 0.000000 0.000000 0.000000
		CHANNELS 3 Zrotation Yrotation Xrotation
		JOINT LeftUpLeg
		{
			OFFSET 6.857700 -6.739601 0.312100
			CHANNELS 3 Zrotation Yrotation Xrotation
			JOINT LeftLeg
			{
				OFFSET -0.367590 -34.731552 -4.572400
				CHANNELS 3 Zrotation Yrotation Xrotation
				End Site #name: LeftFoot
				{
					OFFSET 0.367590 -34.656704 -6.067400
				}
			}
		}
	}
	JOINT Hips_RightUpLeg
	{
		OFFSET 0.000000 0.000000 0.000000
		CHANNELS 3 Zrotation Yrotation Xrotation
		JOINT RightUpLeg
		{
			OFFSET -6.876100 -6.733299 0.301000
			CHANNELS 3 Zrotation Yrotation Xrotation
			JOINT RightLeg
			{
				OFFSET 0.347353 -34.795158 -4.515900
				CHANNELS 3 Zrotation Yrotation Xrotation
				End Site #name: RightFoot
				{
					OFFSET -0.347353 -34.589367 -6.070300
				}
			}
		}
	}
}
MOTION
Frames: 6
Frame Time: 0.041667
0.041733 0.016193 0.049071 -0.485697 1.802676 -3.543704 0.000000 -0.000000 0.000000 1.221293 2.486993 6.495876 -2.706238 1.262527 4.102413 0.000000 0.000000 0.000000 -2.137649 0.969238 1.361074 2.920817 -0.928166 2.353384 -3.033233 0.748563 4.028684 -2.236435 1.344497 -0.469689 -70.915343 -13.614097 46.699090 0.290513 -46.409034 0.606750 -1.986060 1.160126 2.841957 3.723725 2.034414 3.015584 79.891503 -1.396257 45.542175 0.001205 43.746869 0.660476 0.000000 0.000000 0.000000 1.887585 5.834131 -12.578212 2.118373 5.504585 17.508949 0.000000 0.000000 0.000000 -3.191799 -10.483904 -11.637315 -2.064647 -3.796117 15.374313 
0.073983 0.069056 0.027890 -0.531744 2.421961 -3.584314 0.000000 -0.000000 0.000000 0.110568 1.297601 1.780959 -1.955610 0.691765 3.818189 0.000000 0.000000 0.000000 -2.059428 0.739524 3.299790 2.339210 -0.478735 3.870305 -2.070685 0.470780 4.218239 -0.249315 4.048789 -0.833151 -67.232125 -7.931108 55.520298 0.086453 -40.005264 0.664172 -1.999987 0.524516 3.226598 3.758409 3.411653 1.936728 83.517351 2.984142 47.482538 0.202963 30.306855 0.468284 0.000000 0.000000 -0.000000 2.074233 5.438503 -10.945478 1.564637 5.855197 14.889976 0.000000 -0.000000 0.000000 -3.003195 -10.413664 -11.082716 -1.589280 -2.627273 14.859366 
0.155919 0.072770 -0.016351 -0.790793 2.828825 -3.665934 0.000000 0.000000 0.000000 0.114587 1.103322 0.048980 -1.260186 0.479255 3.558615 0.000000 0.000000 0.000000 -1.614062 0.496660 2.884773 1.546576 -0.434625 5.027036 -1.459267 0.410401 3.918836 -1.662822 5.818767 -0.995126 -65.189934 -6.048564 60.295453 0.107399 -31.642983 0.244990 -1.334704 0.433085 2.944231 3.971448 4.087515 1.348383 79.550378 1.511556 45.010007 0.080389 29.383284 0.210798 0.000000 0.000000 -0.000000 2.478317 6.785811 -10.530875 1.424228 5.869487 14.405071 0.000000 -0.000000 -0.000000 -2.980977 -9.735995 -11.080941 -1.256196 -2.370796 15.115731 
0.255848 0.062384 -0.072339 -1.018842 2.932986 -3.679925 0.000000 0.000000 0.000000 0.183416 1.083527 -0.070728 -1.147488 0.512989 3.713934 0.000000 0.000000 0.000000 -1.436966 0.477180 2.915838 0.919713 -0.807880 6.634425 -1.285462 0.399391 3.880066 -1.381889 5.523043 -1.059270 -66.207033 -6.658118 61.174321 0.206564 -25.533202 0.134930 -1.039679 0.472393 3.121503 3.460388 5.767628 1.682415 77.891979 3.039105 46.481462 0.038071 34.391116 0.083819 -0.000000 0.000000 -0.000000 2.702481 7.866894 -10.597691 1.730498 6.306236 14.625024 0.000000 -0.000000 0.000000 -2.851568 -9.579592 -11.262284 -0.960762 -1.814578 15.402293 
0.372751 0.052683 -0.127725 -1.155368 3.092014 -3.682982 0.000000 -0.000000 0.000000 0.246307 1.098025 0.017347 -1.319163 0.528678 3.831424 0.000000 0.000000 0.000000 -1.575491 0.490937 3.028113 0.678372 -1.096329 7.587939 -1.454102 0.390327 3.965347 -1.335895 5.023115 -0.999150 -67.272119 -7.581264 61.801868 0.252093 -24.644861 0.106446 -1.232632 0.504239 3.246975 2.951600 7.158749 2.073017 77.239796 3.469556 48.358511 0.018830 40.032074 0.057910 -0.000000 0.000000 -0.000000 2.830160 8.459943 -10.786177 2.002067 6.731283 14.984215 0.000000 -0.000000 -0.000000 -2.821446 -9.496827 -11.369711 -0.691588 -1.387652 15.572147 
0.497289 0.044562 -0.180150 -1.248886 3.262997 -3.678473 0.000000 -0.000000 0.000000 0.316742 1.145159 0.046980 -1.522520 0.492405 3.935561 0.000000 0.000000 0.000000 -1.776286 0.490003 3.134004 0.517346 -1.361545 8.407891 -1.665585 0.365193 4.102272 -1.580644 4.443995 -0.906461 -67.690015 -7.815165 62.226866 0.274343 -24.624029 0.075901 -1.476146 0.508913 3.313647 2.679906 8.147320 2.346537 76.408274 3.697392 48.957074 0.008245 43.797934 0.087068 -0.000000 0.000000 -0.000000 2.896405 8.904537 -10.947828 2.172658 7.000888 15.302749 0.000000 0.000000 -0.000000 -2.836676 -9.473181 -11.377131 -0.522584 -1.106642 15.542166 
